<svg width="1321" height="288" viewBox="0 0 1321 288" fill="none" xmlns="http://www.w3.org/2000/svg">
	<mask id="mask0_33_10" style="mask-type:luminance" maskUnits="userSpaceOnUse" x="0" y="0" width="849" height="288">
		<path d="M848.84 0H0V287.273H848.84V0Z" fill="white" />
	</mask>
	<g mask="url(#mask0_33_10)">
		<path d="M97.18 298.24H142.9C144.75 291.062 146.4 283.865 147.88 276.612C148.64 271.851 149.36 267.109 149.92 262.32C150.44 257.902 150.77 253.475 151.1 249.047C151.24 244.351 151.35 239.674 151.27 234.978C151.19 230.439 150.93 225.928 150.64 221.408C150.06 216.323 149.48 211.266 148.69 206.218C147.95 201.513 146.96 196.882 146.01 192.213C144.63 186.841 143.23 181.515 141.6 176.208C140.14 171.456 138.45 166.788 136.76 162.092C134.05 155.534 131.41 148.865 128.04 142.567C127.29 141.187 125.63 138.112 123.97 135.037C122.21 132.165 120.59 129.164 118.66 126.404C116.97 123.977 115.27 121.551 113.58 119.124C111.76 116.79 110.02 114.344 108.04 112.121C105.99 109.834 103.93 107.546 101.87 105.267C99.9 103.267 97.96 101.21 95.86 99.3486C93.43 97.1997 90.99 95.0416 88.55 92.8927L88.45 92.8093C87.45 92.022 84.89 89.9936 82.34 87.9651C77.5 84.1675 72.18 80.8608 66.97 77.5171C63.49 75.4979 60.02 73.4972 56.42 71.654C51.57 69.181 46.63 67.0321 41.61 64.8091C41.49 64.7628 41.38 64.7257 41.26 64.6794C38.58 63.9107 34.75 62.7806 30.92 61.6506L30.81 61.6228C29.17 61.1597 27.44 60.8819 25.79 60.5114C24.02 60.1223 22.27 59.7518 20.5 59.4277C16.68 58.8626 12.85 58.4551 8.96999 58.2235C7.68999 58.1865 6.41999 58.168 5.14 58.168C2.46 58.168 -0.220005 58.2513 -2.90001 58.4088C-7.02 58.7793 -11.11 59.335 -15.17 60.076C-21.06 61.3079 -26.7 62.9937 -32.38 64.8091V115.122C-25.59 112.983 -18.65 111.325 -11.48 110.658C-7.34001 110.269 -3.24001 109.991 0.899994 109.991C1.90999 109.991 2.92 110.01 3.93 110.037C9.52999 110.223 14.93 110.88 20.45 111.797C25.02 112.566 29.5 113.696 33.84 115.169C51.75 121.236 67.36 132.99 77.95 147.624C83.59 155.423 88.17 163.824 91.47 172.697C97.82 189.824 101.44 207.969 102.94 226.021C104.41 243.749 104.92 261.737 101.52 279.326C100.71 283.605 99.53 289.728 97.87 295.785C97.64 296.61 97.41 297.425 97.17 298.249"
			fill="#E5F5F9" />
		<path d="M387.68 298.24H480.41C486.58 295.674 493.04 293.673 499.6 292.043C499.71 292.015 499.82 291.997 499.93 291.978C506.47 291.061 513.36 290.126 520.18 290.126C520.78 290.126 521.39 290.126 521.99 290.144C532.22 290.413 542.17 291.821 551.99 294.507C554.64 295.229 557.3 296.017 559.91 296.906C561.15 297.323 562.39 297.767 563.61 298.24H629.28C626.75 295.702 624.16 293.229 621.49 290.793C617.74 287.625 613.97 284.494 610.03 281.521C606.3 278.715 602.47 276.056 598.59 273.444C591.9 269.248 585.07 265.386 578.01 261.764C570.92 258.476 563.75 255.559 556.36 252.9C548.66 250.446 540.92 248.343 533.02 246.491C525.37 244.99 517.71 243.805 509.93 242.925C508.82 242.832 507.32 242.721 505.82 242.601C502.22 242.341 498.61 242.258 495 242.258C492.48 242.258 489.95 242.295 487.43 242.341C479.77 242.749 472.22 243.443 464.63 244.49C459.43 245.416 454.31 246.519 449.2 247.797L449 247.852C446.47 248.63 443.96 249.445 441.46 250.353C439.29 251.14 437.19 252.03 435.08 252.928L434.89 253.021C431.58 254.669 428.37 256.392 425.17 258.208L424.98 258.328C421.79 260.431 418.7 262.598 415.65 264.858L415.51 264.969C413.83 266.405 412.04 267.776 410.46 269.304C409.22 270.517 407.98 271.722 406.73 272.926L406.61 273.055C403.55 276.418 400.61 279.817 397.74 283.318L397.63 283.457C395.29 286.671 393 289.867 390.84 293.182C389.75 294.85 388.71 296.535 387.69 298.24"
			fill="#E5F5F9" />
		<path d="M750.33 298.24H784.16C783.73 296.804 783.3 295.378 782.89 293.933C781.48 288.959 779.59 284.05 777.93 279.141C776.14 274.723 773.83 268.489 771.19 262.357C768.71 256.578 766.05 250.918 763.34 245.24C762.27 244.703 761.54 244.333 760.48 243.795C750.15 245.268 739.87 246.546 729.64 247.612C727.73 247.806 726.66 249.742 727.61 251.289C728.64 252.947 729.64 254.623 730.58 256.318C735.27 264.738 739.67 273.231 743.66 281.956C746.1 287.31 748.27 292.747 750.33 298.231"
			fill="#E5F5F9" />
		<path d="M317.03 298.24H352.05C356.54 289.098 361.64 280.243 367.61 271.833C381.8 251.835 401.44 233.153 426.12 224.798C427.76 224.243 429.42 223.733 431.1 223.279C433.08 222.733 435.16 222.223 436.74 220.991C440.1 218.37 438.71 214.943 435.13 213.6C427.07 210.581 418.28 207.542 409.48 207.542C406.74 207.542 404 207.839 401.27 208.515C393.59 210.432 387.15 215.184 381.22 220.084C354.7 241.989 333.54 269.045 317.03 298.231"
			fill="#E5F5F9" />
		<path d="M245.32 298.24H281.5C287.61 286.097 294.21 274.148 302.07 262.894C303.76 260.449 306.02 257.198 308.28 253.947C308.36 253.836 308.44 253.715 308.53 253.595C308.74 253.289 308.95 252.984 309.16 252.687C313.46 246.611 318.61 240.498 323.7 234.385C330.74 225.928 338.72 218.157 346.37 210.21L346.55 210.043C352.5 205.032 358.41 199.975 364.36 194.964C369.91 190.286 359.26 187.869 356.01 186.507C349.47 183.756 342.96 180.959 336.46 178.116C336.08 177.949 335.69 177.875 335.3 177.875C334.35 177.875 333.44 178.338 332.96 179.144C329.6 184.692 326.52 190.379 323.57 196.14C321.6 200.077 319.67 204.041 317.78 208.015C316.18 211.377 314.32 214.415 311.44 216.99C309.18 219.009 306.48 220.797 303.51 221.806C301.68 222.418 299.64 222.946 297.63 222.946C296.81 222.946 295.99 222.853 295.2 222.649C292.41 221.918 290.36 220.084 288.87 217.824C285.76 213.072 285.06 206.598 286.67 201.281C287.92 197.178 290.11 193.232 292.04 189.36C294.09 185.192 296.18 181.043 298.35 176.93C300.21 173.392 302.16 169.881 304.2 166.427C304.94 165.195 304.44 163.648 303.08 163.027C294.3 158.952 285.46 155.284 276.88 150.773C273.98 149.245 271.48 148.124 269.64 148.124C267.38 148.124 266.16 149.838 266.51 154.645C268.4 180.005 267.11 205.597 263.2 230.754C261.88 239.257 260.28 247.75 258.17 256.124C256 264.765 253.82 273.426 250.98 281.91C249.16 287.338 247.28 292.784 245.34 298.24"
			fill="#E5F5F9" />
		<path d="M669.51 298.24H716.27C712.15 288.681 707.54 279.308 702.39 270.128C697.83 261.978 694.21 250.983 682.62 250.974H682.4C677.56 250.974 672.72 251.196 667.89 251.409C663.05 251.631 658.21 251.854 653.35 251.854C652.16 251.854 650.97 251.844 649.78 251.807C645.53 251.696 638.5 250.344 632.69 250.344C630.03 250.344 627.62 250.631 625.86 251.446C623.92 252.345 624.53 254.41 625.21 255.846C629.08 263.849 637.9 268.044 645.18 272.981C652.74 278.103 658.64 285.013 664.38 291.812C666.15 293.905 667.86 296.054 669.5 298.231"
			fill="#E5F5F9" />
		<path d="M175.28 298.24H211.87C218.03 281.438 223.46 264.395 227.58 247.056C230.76 224.873 233.36 202.939 234.8 180.524C235 177.393 235.29 174.189 235.6 170.938C236.71 158.804 237.86 146.059 234.11 134.675C231.58 127.015 224.15 124.635 217.1 121.06C198.46 111.621 179.78 102.248 160.93 93.1798C150.89 88.3541 140.81 83.6117 130.67 78.9713C128.3 77.8876 123.96 76.6094 121.14 76.6094C118.32 76.6094 116.93 77.9524 120.97 82.2039C151.86 114.78 172.78 155.201 179.54 198.178C180.24 202.615 180.97 207.033 181.46 211.498C182.61 221.918 183.23 232.255 183.38 242.999V243.231C181.88 261.691 179.43 280.123 175.3 298.249"
			fill="#E5F5F9" />
		<path d="M817.08 298.24H845.09C844.53 294.238 844.01 290.228 843.54 286.226C842.59 278.15 841.82 270.063 841.28 261.977C840.78 254.521 844.88 233.848 835.67 229.892C833.76 229.068 831.62 228.92 829.49 228.92C828.95 228.92 828.4 228.929 827.87 228.938C818.82 229.114 796.45 227.716 796.13 240.313C795.97 246.518 802.49 255.466 804.8 261.283C807.73 268.646 810.38 276.112 812.77 283.633C814.31 288.477 815.74 293.34 817.08 298.23"
			fill="#E5F5F9" />
		<path d="M-32.38 33.1314C-20.56 29.7692 -8.23 27.8333 4.68 27.8333C4.96 27.8333 5.23 27.8333 5.50999 27.8333C6.77999 27.8333 8.71999 28.2038 10.46 28.2038C12.2 28.2038 13.64 27.8704 14.17 26.5458C15.28 23.7393 9.96 22.0721 8.16999 21.2292C1.26999 17.9874 -5.63 14.7455 -12.52 11.5037C-19 8.45638 -25.54 5.39979 -32.38 3.21387V33.1221V33.1314Z"
			fill="#E5F5F9" />
		<path d="M31.7 298.24H64.08C66.2 291.951 68.13 285.615 69.39 279.094C69.71 277.418 70.03 275.751 70.34 274.065C71.04 269.082 71.61 264.126 72.07 259.125C72.28 254.003 72.55 248.862 72.32 243.749C72.08 238.479 71.74 233.255 71.32 227.994C70.18 218.166 68.61 208.478 66.53 198.78C65.74 195.714 64.95 192.667 64.02 189.647C63.16 186.878 62.19 184.164 61.19 181.432L61.11 181.256C59.61 177.838 58.01 174.522 56.3 171.197L56.22 171.058C55.25 169.437 54.34 167.76 53.24 166.232C52.36 165.019 51.49 163.805 50.61 162.592C49.25 160.906 47.85 159.276 46.38 157.683C44.48 155.793 42.49 153.997 40.4 152.283C38.45 150.829 36.46 149.449 34.39 148.143C32.12 146.846 29.81 145.66 27.41 144.567C25.17 143.66 22.91 142.835 20.59 142.104C16.53 141.011 12.45 140.297 8.26999 139.603C8.13998 139.584 7.99998 139.575 7.86998 139.556C5.50998 139.464 3.17999 139.427 0.839985 139.427C-0.770016 139.427 -2.39001 139.445 -4.02001 139.482L-4.31001 139.501C-7.42002 139.825 -10.49 140.223 -13.58 140.696L-13.85 140.751C-17.13 141.52 -20.33 142.363 -23.55 143.298L-23.71 143.345C-25.46 143.956 -27.25 144.521 -28.92 145.262C-30.08 145.781 -31.24 146.29 -32.39 146.809V175.652C-29.31 173.966 -26.08 172.531 -22.71 171.419C-17.77 169.789 -12.51 168.881 -7.28001 168.881C-3.11001 168.881 1.03999 169.455 4.97998 170.697C29.64 178.458 37.13 204.162 39 225.613C40.12 238.423 39.28 251.316 37.25 264.015C36.21 270.545 34.82 277.02 33.28 283.457C31.72 290.015 30.07 294.377 31.68 298.221"
			fill="#E5F5F9" />
	</g>
	<mask id="mask1_33_10" style="mask-type:luminance" maskUnits="userSpaceOnUse" x="856" y="193" width="465" height="95">
		<path d="M856 287.18H1320.6L1280.26 227.281L856 193.584V287.18Z" fill="white" />
	</mask>
	<g mask="url(#mask1_33_10)">
		<path d="M1319.62 298.657H1226.89C1220.72 296.091 1214.26 294.09 1207.7 292.46C1207.59 292.432 1207.48 292.414 1207.37 292.395C1200.83 291.478 1193.94 290.543 1187.12 290.543C1186.52 290.543 1185.91 290.543 1185.31 290.561C1175.08 290.83 1165.13 292.238 1155.31 294.924C1152.66 295.646 1150 296.434 1147.38 297.323C1146.14 297.74 1144.9 298.184 1143.68 298.657H1078C1080.53 296.119 1083.12 293.646 1085.79 291.21C1089.54 288.042 1093.31 284.911 1097.25 281.938C1100.98 279.132 1104.81 276.473 1108.69 273.861C1115.38 269.665 1122.21 265.803 1129.27 262.181C1136.36 258.893 1143.53 255.976 1150.92 253.317C1158.62 250.863 1166.36 248.76 1174.26 246.908C1181.91 245.407 1189.57 244.222 1197.35 243.342C1198.46 243.249 1199.96 243.138 1201.46 243.018C1205.06 242.758 1208.67 242.675 1212.28 242.675C1214.8 242.675 1217.33 242.712 1219.85 242.758C1227.51 243.166 1235.06 243.86 1242.65 244.907C1247.85 245.833 1252.97 246.936 1258.09 248.214L1258.29 248.269C1260.82 249.047 1263.33 249.862 1265.83 250.77C1268 251.557 1270.1 252.447 1272.21 253.345L1272.4 253.438C1275.71 255.086 1278.92 256.809 1282.12 258.625L1282.31 258.745C1285.5 260.848 1288.59 263.015 1291.64 265.275L1291.78 265.386C1293.46 266.822 1295.25 268.193 1296.83 269.721C1298.07 270.934 1299.31 272.138 1300.56 273.343L1300.68 273.472C1303.74 276.835 1306.68 280.234 1309.55 283.735L1309.66 283.874C1312 287.088 1314.29 290.284 1316.46 293.599C1317.55 295.267 1318.59 296.952 1319.61 298.657"
			fill="#E5F5F9" />
		<path d="M954.51 298.156H920.68C921.11 296.721 921.54 295.294 921.95 293.849C923.36 288.875 925.25 283.966 926.91 279.057C928.7 274.639 931.01 268.405 933.65 262.274C936.13 256.494 938.79 250.835 941.5 245.157C942.57 244.62 943.3 244.249 944.36 243.712C954.69 245.185 964.97 246.463 975.2 247.528C977.11 247.723 978.18 249.658 977.23 251.205C976.2 252.863 975.2 254.54 974.26 256.235C969.57 264.654 965.17 273.148 961.18 281.873C958.74 287.227 956.57 292.664 954.51 298.147"
			fill="#E5F5F9" />
		<path d="M1035.33 298.157H988.57C992.69 288.598 997.3 279.224 1002.45 270.045C1007.01 261.894 1010.63 250.9 1022.22 250.891H1022.44C1027.28 250.891 1032.12 251.113 1036.95 251.326C1041.79 251.548 1046.63 251.771 1051.49 251.771C1052.68 251.771 1053.87 251.761 1055.06 251.724C1059.31 251.613 1066.34 250.261 1072.15 250.261C1074.81 250.261 1077.22 250.548 1078.98 251.363C1080.92 252.261 1080.31 254.327 1079.63 255.763C1075.76 263.765 1066.94 267.961 1059.66 272.898C1052.1 278.02 1046.2 284.93 1040.46 291.728C1038.69 293.822 1036.98 295.971 1035.34 298.147"
			fill="#E5F5F9" />
		<path d="M887.76 298.157H859.75C860.31 294.155 860.83 290.145 861.3 286.143C862.25 278.067 863.02 269.98 863.56 261.894C864.06 254.438 859.96 233.765 869.17 229.809C871.08 228.985 873.22 228.837 875.35 228.837C875.89 228.837 876.44 228.846 876.97 228.855C886.02 229.031 908.39 227.633 908.71 240.23C908.87 246.435 902.35 255.383 900.04 261.2C897.11 268.563 894.46 276.029 892.07 283.55C890.53 288.394 889.1 293.257 887.76 298.147"
			fill="#E5F5F9" />
	</g>
</svg>
