<svg width="515"
	height="982"
	viewBox="0 0 515 982"
	fill="none"
	xmlns="http://www.w3.org/2000/svg">
	<g clip-path="url(#clip0_2_27)">
		<path
			d="M817.3 548.24C806.91 549.976 785.978 555.281 770.563 560.132C750.18 565.172 711.151 581.028 683.419 595.506C662.658 604.378 626.236 629.918 602.093 652.551C598.126 655.665 590.986 662.876 586.149 668.671C580.01 674.787 569.431 689.775 562.536 702.12C562.479 702.214 562.385 702.403 562.328 702.554C557.624 709.992 551.447 726.376 548.519 739.156C546.932 745.064 544.797 757.39 543.758 766.696C543.456 769.15 543.097 774.19 542.965 777.965C542.832 781.137 542.851 787.573 543.021 792.33C542.644 803.958 546.46 827.082 551.522 843.976C554.261 852.244 561.043 867.93 566.673 879.011C566.73 879.124 566.862 879.35 566.956 879.501C573.436 893.3 593.252 914.97 611.218 927.919C615.884 931.6 626.104 938.094 634.038 942.397C639.233 945.248 650.152 950.269 658.464 953.61C685.119 965.483 740.999 974.94 783.277 974.733C797.313 975.035 825.744 973.053 846.807 970.316C862.865 961.028 888.651 957.857 904.406 963.237C908.6 967.107 912 976.167 912 983.51C912.057 997.668 911.887 1026.62 911.641 1048.18C911.887 1049.18 911.603 1051.03 910.999 1052.3C900.514 1054.75 887.517 1057.11 881.926 1057.62C873.273 1058.43 855.573 1059.9 842.387 1060.92C825.083 1062.55 789.624 1064.6 763.196 1065.51C748.876 1066.19 719.539 1066.23 697.682 1065.58C692.185 1065.4 680.982 1064.58 672.67 1063.77C666.965 1063.19 655.29 1061.75 646.601 1060.56C642.426 1059.94 633.963 1058.28 627.691 1056.83C623.1 1055.77 613.768 1053.33 606.835 1051.39C606.778 1051.37 606.627 1051.31 606.533 1051.3C601.47 1049.63 591.212 1045.8 583.599 1042.76C583.524 1042.73 583.41 1042.67 583.297 1042.63C581.464 1041.76 577.686 1039.97 574.872 1038.65C572.586 1037.4 567.92 1034.84 564.481 1032.91C564.425 1032.87 564.293 1032.8 564.198 1032.74C560.495 1030.42 553.071 1025.28 547.631 1021.28C547.555 1021.23 547.423 1021.11 547.31 1021.04C544.06 1018.37 537.6 1012.6 532.896 1008.16C532.839 1008.11 532.726 1007.99 532.631 1007.9C530.78 1006.05 527.191 1002.05 524.64 998.97C522.695 996.648 518.879 991.778 516.139 988.078C516.102 988.022 516.007 987.889 515.932 987.795C512.55 982.887 506.184 972.449 501.745 964.464C497.702 956.838 490.486 940.699 485.631 928.41C482.91 921.973 478.679 908.42 476.166 898.151C475.694 896.188 474.957 893.092 474.523 891.224C472.577 882.616 469.819 864.759 468.345 851.357C467.476 842.239 466.91 823.457 467.08 809.432C467.306 800.541 469.082 782.364 471.066 768.848C472.52 759.901 476.79 741.779 480.606 728.377C482.136 723.167 485.763 712.691 488.71 704.952C490.75 699.591 495.322 688.775 498.892 680.809C501.801 674.693 508.394 662.499 513.646 653.57C518.01 646.529 528.003 632.844 535.975 622.971C540.358 617.762 549.935 607.568 557.322 600.207C563.272 594.468 576.345 583.652 586.489 576.045C593.592 570.948 608.8 561.51 620.474 554.979C630.619 549.523 652.136 539.915 668.552 533.516C698.343 522.115 760.683 503.729 807.816 492.422C814.069 487.987 822.192 487.118 825.97 490.478C826.594 491.139 827.538 492.687 828.067 493.97C844.465 512.507 849.886 534.29 840.158 542.615C839.081 543.389 836.663 544.314 834.755 544.71C828.917 545.88 823.08 547.07 817.281 548.315"
			fill="#004D66" />
		<path
			d="M367.807 452.348C375.345 446.364 387.001 437.039 393.839 431.546C398.77 427.507 409.292 420.032 417.321 414.822C422.705 410.858 434.115 403.42 442.786 398.229C448.453 394.435 460.354 387.338 469.365 382.373C474.9 379.372 486.216 373.199 494.604 368.593C539.999 346.735 635.096 306.49 706.995 278.704C714.325 270.908 726.528 269.285 734.255 275.061C735.426 276.043 737.221 278.496 738.26 280.516C755.488 298.619 760.608 319.062 749.708 326.197C748.026 327.122 744.361 328.255 741.509 328.745C708.242 334.276 675.39 342.978 652.665 351.718C647.828 353.587 643.88 355.097 643.861 355.097C643.824 355.097 643.748 355.135 643.691 355.172L643.578 355.21C643.578 355.21 642.01 355.814 640.197 356.494C636.211 358.004 630.373 360.25 627.162 361.477C606.835 369.273 566.824 388.225 537.77 403.798C528.135 409.083 508.81 420.466 494.566 429.205C488.766 433.358 476.676 441.192 467.571 446.704C467.495 446.742 467.363 446.855 467.25 446.93C455.594 454.594 433.246 472.074 417.34 486.004C408.555 493.48 391.421 509.751 379.066 522.342C377.423 524.003 374.155 527.476 371.756 530.137C368.941 532.497 365.541 531.968 364.162 528.967C356.756 512.847 348.935 496.764 344.855 488.742C342.588 484.306 340.85 480.266 340.944 479.7C341.133 478.68 341.398 477.265 341.587 476.226C341.7 475.66 343.703 473.471 346.064 471.319C350.352 467.449 358.929 459.804 367.807 452.367"
			fill="#004D66" />
		<path
			d="M418.7 560.396C466.059 504.428 585.129 431.943 684.666 398.494C702.046 394.341 737.221 384.733 763.252 377.012C767.503 374.37 775.173 374.388 780.387 377.069C782.408 378.107 785.638 381.127 787.622 383.808C803.604 400.343 810.537 423.656 803.131 435.869C798.125 438.832 788.906 442.287 782.54 443.57C775.154 444.967 760.135 448.252 748.99 450.894C697.55 453.934 608.327 491.667 549.728 535.196C529.212 547.504 496.908 580.971 477.564 609.947C469.875 618.007 459.599 636.978 454.63 652.343C455.934 664.915 447.187 684.018 435.116 695.023C433.265 698.496 429.619 699.175 426.993 696.533C423.271 685.018 417.774 667.406 414.695 657.175C409.972 645.68 401.377 621.839 395.502 603.925C389.268 584.954 406.761 572.628 418.681 560.415"
			fill="#004D66" />
		<path
			d="M157.211 -303.33C149.22 -295.647 134.598 -278.489 124.529 -265.03C118.106 -256.347 105.997 -237.98 97.4584 -223.992C91.3 -214.819 81.59 -194.942 75.7716 -179.633C73.618 -174.215 69.9721 -162.871 67.6485 -154.282C66.2883 -148.77 64.0403 -137.406 62.6235 -128.893C61.6789 -124.042 60.7155 -114.038 60.4888 -106.562C60.1487 -100.012 60.6021 -86.7423 61.5278 -76.9455C62.0945 -65.2421 67.9507 -43.0246 74.6192 -27.3195C81.08 6.94113 118.182 49.2431 157.456 67.1379C160.271 68.6669 166.259 71.253 170.831 72.933C174.137 74.1788 181.032 76.4062 186.246 77.9352C191.781 79.4453 203.286 81.6349 211.938 82.8619C219.456 83.0884 234.399 83.7302 245.318 84.2965C245.488 84.2965 245.809 84.2965 246.055 84.2776C260.865 84.0134 289.863 78.2184 310.851 71.3285C321.43 68.1384 342.569 60.1159 358.06 53.4337C368.298 48.9033 388.739 38.729 403.719 30.7065C412.56 26.1762 430.129 16.0396 442.937 8.07373C460.751 -2.34604 495.435 -26.1303 520.409 -45.0822C522.373 -46.6111 525.245 -46.2336 526.813 -44.2704C530.194 -40.061 536.995 -31.3968 542.001 -24.9222C545.477 -20.4485 552.467 -11.2557 557.605 -4.42242C559.003 -2.70468 558.814 0.0135193 557.171 1.65576C550.521 8.39462 536.712 21.9479 526.321 31.9146C514.345 43.769 487.897 65.8354 467.231 81.2008C461.393 85.6745 448.868 93.9612 439.272 99.7185C432.471 103.89 418.303 111.932 407.592 117.689C391.157 126.938 360.742 140.661 339.66 148.344C337.827 149.005 334.068 150.383 331.291 151.402C330.29 151.723 328.268 152.44 326.776 153.007C326.7 153.044 326.549 153.101 326.436 153.12C321.902 154.573 312.476 157.122 305.373 158.802C294.454 161.369 271.803 164.955 254.783 166.805C245.186 167.806 225.445 168.296 210.691 167.881C204.797 167.579 192.763 166.333 183.809 165.087C178.576 164.219 167.997 161.765 160.139 159.632C160.063 159.613 159.893 159.557 159.78 159.519C155 158.028 145.385 154.385 138.32 151.421C133.597 149.25 124.151 144.305 117.237 140.378C111.079 136.66 98.9886 128.203 90.2232 121.483C84.197 116.707 72.6546 105.985 64.4559 97.5477C60.1299 92.8098 51.8367 82.5787 45.9238 74.6884C42.0134 69.1388 34.627 57.3222 29.3942 48.2993C26.1261 42.2589 20.1943 29.4984 16.1139 19.7582C16.0761 19.6827 16.0194 19.5128 15.9816 19.3995C13.6203 13.0571 9.57758 -0.250763 6.97063 -10.3496C6.95174 -10.4251 6.91395 -10.5761 6.87617 -10.7083C5.28933 -17.919 2.87128 -32.888 1.49224 -44.1572C1.05775 -49.235 0.434348 -59.6736 0.09431 -67.4884C-0.0379269 -72.8304 0.09431 -83.7032 0.396566 -91.7823C0.717712 -102.485 2.38012 -119.436 4.11809 -129.629C4.7226 -133.084 5.79939 -139.37 6.53614 -143.673C6.64948 -144.391 6.78172 -145.108 6.85728 -145.467C6.89506 -145.674 6.89506 -145.655 6.85728 -145.429C6.80061 -145.127 6.64948 -144.221 6.51724 -143.428C6.46057 -143.107 6.4039 -142.805 6.38501 -142.654C6.38501 -142.56 6.95174 -145.353 7.66959 -148.883C8.51969 -153.735 11.9956 -167.854 15.4338 -180.426C17.6063 -187.674 22.6313 -202.36 26.6361 -213.214C29.3942 -220.425 35.4771 -234.922 40.2565 -245.625C42.8257 -251.571 48.7008 -263.444 53.348 -272.165C56.5028 -278.13 63.3602 -290.079 68.6875 -298.894C77.2829 -314.656 98.7241 -343.895 116.576 -364.187C121.28 -372.285 132.992 -387.028 142.721 -397.089C147.368 -404.677 159.213 -410 169.15 -408.943C174.099 -408.358 182.468 -404.149 187.852 -399.543C195.767 -396.258 205.383 -386.537 209.35 -377.854C210.918 -371.323 207.461 -360.016 201.623 -352.616C187.946 -335.306 172.305 -319.564 157.305 -303.405"
			fill="#004D66" />
		<path
			d="M305.732 214.543C310.794 213.524 321.128 211.278 328.816 209.522C333.388 208.352 340.963 205.992 345.724 204.275C346.026 204.18 346.593 203.954 347.027 203.803C347.764 203.614 349.219 203.066 350.277 202.613C352.109 201.953 353.96 201.273 354.867 200.933C355.377 200.745 355.812 200.594 355.831 200.575C355.868 200.575 355.982 200.518 356.076 200.48C357.323 200.084 359.854 199.159 361.743 198.423C364.766 197.215 370.943 194.761 375.553 192.93C379.784 191.231 388.342 187.55 394.633 184.7C415.073 177.111 453.61 156.31 480.681 138.245C499.1 127.07 533.368 100.02 557.208 77.8028C564.255 71.2905 578.385 57.6995 588.775 47.4307C591.023 45.4298 594.178 45.713 595.841 48.0536C604.247 59.757 620.682 83.8621 632.546 101.889C633.963 104.079 633.32 106.986 631.11 108.364C628.692 109.874 623.743 112.969 620.059 115.291C551.881 166.333 400.451 248.351 281.835 298.505C275.317 302.979 260.79 307.17 249.38 307.868C239.632 306.943 225.237 295.938 217.19 283.291C208.859 270.531 190.402 245.425 175.932 227.209C174.137 222.49 176.026 219.168 180.182 219.791C186.492 220.961 199.527 222.169 209.293 222.509C241.616 223.642 273.976 221.056 305.694 214.524"
			fill="#004D66" />
		<path
			d="M370.924 320.062C390.477 311.341 429.392 291.842 457.842 276.552C502.141 251.541 591.231 197.989 656.84 156.914C657.992 155.668 660.731 154.498 662.979 154.309C670.177 163.483 679.036 176.054 682.777 182.397C687.33 190.023 696.397 205.785 703.028 217.601C704.35 220.338 703.198 223.302 700.459 224.227C682.361 230.116 645.902 243.368 619.02 253.825C582.22 265.755 510.642 297.901 459.145 325.612C441.539 334.295 407.441 355.021 382.977 371.934C374.967 377.258 359.212 388.904 347.764 397.984C340.926 409.215 326.417 421.051 315.366 424.392C300.008 414.067 283.327 393.793 278.132 379.07C276.205 376.238 275.072 370.273 275.601 365.762C292.338 355.531 316.367 343.054 329.308 337.9C343.306 332.313 357.172 326.348 370.943 320.081"
			fill="#004D66" />
		<path
			d="M419.814 -42.0244C408.914 -35.0779 385.999 -21.8456 368.658 -12.4829C363.009 -9.40601 351.183 -3.5921 342.267 0.485199C336.089 3.33554 323.244 8.75305 313.59 12.585C309.415 14.1328 300.744 17.0964 294.246 19.2106C289.769 20.5886 280.531 23.0614 273.636 24.7225C267.591 26.025 255.028 27.8937 245.583 28.8941C245.488 28.8941 245.299 28.9319 245.167 28.9319C241.313 29.1396 233.379 29.2717 227.466 29.215C227.372 29.215 227.164 29.2151 227.013 29.1962C223.443 28.9508 216.132 28.1768 210.691 27.4596C210.578 27.4407 210.351 27.4029 210.2 27.3652C206.101 26.5535 197.713 24.3827 191.441 22.5328C191.29 22.4762 191.007 22.3629 190.78 22.2874C186.643 20.7018 178.558 16.6434 172.701 13.2079C170.642 11.9243 166.618 9.05508 163.69 6.78992C161.14 4.61914 156.191 -0.118835 152.658 -3.8186C152.601 -3.87524 152.469 -4.02625 152.375 -4.13953C150.259 -6.59344 146.141 -11.8222 143.156 -15.7862C143.099 -15.8617 142.986 -16.0128 142.929 -16.1071C140.058 -20.2788 134.712 -29.1507 130.971 -35.9273C130.933 -36.0028 130.858 -36.1349 130.801 -36.2482C129.101 -39.6648 125.871 -46.819 123.566 -52.2365C123.528 -52.312 123.471 -52.463 123.434 -52.5574C122.584 -54.7282 121.072 -59.2397 120.071 -62.6563C119.41 -64.8837 118.239 -69.4895 117.445 -72.925C117.426 -73.0194 117.389 -73.2082 117.351 -73.3403C116.803 -76.5493 115.972 -83.1183 115.462 -88.0639C115.462 -88.1582 115.424 -88.347 115.424 -88.498C115.273 -91.9713 115.216 -99.0877 115.273 -104.411C115.273 -104.505 115.273 -104.694 115.273 -104.826C115.575 -110.187 116.86 -121.135 118.125 -129.29C118.125 -129.384 118.182 -129.554 118.201 -129.686C118.994 -133.518 120.883 -141.314 122.432 -147.09C122.451 -147.166 122.508 -147.355 122.546 -147.487C124.246 -152.885 128.402 -163.777 131.802 -171.818C131.821 -171.894 131.897 -172.026 131.954 -172.139C135.448 -179.633 143.609 -194.527 150.164 -205.399C153.98 -211.478 162.255 -223.634 168.621 -232.563C172.853 -238.376 181.864 -249.967 188.74 -258.461C195.559 -267.125 210.427 -284.057 221.931 -296.27C231.603 -325.359 250.4 -339.686 263.888 -328.303C289.089 -322.584 300.688 -303.122 289.769 -284.812C287.351 -281.433 281.362 -275.582 276.432 -271.712C221.856 -245.682 175.932 -172.234 173.854 -107.639C173.551 -103.712 173.929 -95.6144 174.704 -89.5362C174.42 -73.1515 186.832 -48.4612 202.474 -34.3795C212.561 -22.7516 237.63 -13.2002 258.485 -13.0492C274.278 -12.6716 303.219 -20.5431 323.149 -30.6231C342.116 -40.5143 377.347 -65.1291 401.83 -85.5911C413.391 -92.4621 432.906 -109.243 445.393 -123.08C446.413 -125.231 449.605 -127.648 452.496 -128.497C465.701 -116.039 480.832 -100.654 486.311 -94.1043C488.011 -92.0279 487.652 -89.0266 485.555 -87.4221C481.626 -84.383 473.484 -78.3048 467.382 -73.8499C451.797 -62.845 436.061 -52.0855 419.852 -42.0055"
			fill="#004D66" />
	</g>
	<defs>
		<clipPath id="clip0_2_27">
			<rect width="912" height="1475" fill="white" transform="translate(0 -409)" />
		</clipPath>
	</defs>
</svg>
