<svg width="293"
	height="982"
	viewBox="0 0 293 982"
	fill="none"
	xmlns="http://www.w3.org/2000/svg">
	<g clip-path="url(#clip0_2_17)">
		<path
			d="M-223.27 332.653C-214.715 333.563 -197.065 333.934 -183.862 333.486C-166.691 333.965 -132.502 329.997 -107.486 324.641C-89.1877 322.186 -54.9221 310.006 -30.9562 297.44C-27.1575 295.85 -19.9616 291.729 -14.8657 288.225C-8.68895 284.736 2.90794 275.242 11.0458 267.029C11.1076 266.967 11.2311 266.829 11.3083 266.736C16.6358 261.904 25.098 250.342 30.1938 240.91C32.7263 236.603 37.1118 227.356 39.9686 220.255C40.7561 218.387 42.1304 214.497 43.0569 211.548C43.8599 209.063 45.2497 203.999 46.1608 200.217C48.9866 191.14 51.0559 172.091 50.7625 157.672C50.4073 150.556 48.4925 136.709 46.485 126.767C46.4696 126.659 46.4078 126.458 46.3615 126.319C44.2769 114.031 33.4058 92.6201 22.0714 78.4951C19.1992 74.5741 12.5591 67.226 7.26257 62.1008C3.80357 58.7355 -3.71666 52.3908 -9.52283 47.9295C-27.9142 32.7548 -69.8699 13.0878 -103.224 4.02618C-114.204 0.722618 -137.042 -3.93941 -154.229 -6.36304C-168.914 -2.55006 -189.915 -5.68381 -201.142 -13.3561C-203.612 -17.3234 -204.292 -25.2118 -202.686 -30.9853C-199.628 -42.1618 -193.174 -64.9317 -188.263 -81.8662C-188.248 -82.7153 -187.615 -84.1046 -186.858 -84.9691C-178.071 -84.6141 -167.293 -83.6415 -162.799 -82.8079C-155.804 -81.5575 -141.551 -78.856 -130.927 -76.7874C-116.937 -74.2866 -88.5701 -68.158 -67.5536 -63.0946C-56.1111 -60.5012 -33.01 -54.1256 -15.9312 -48.8461C-11.6384 -47.5031 -2.99089 -44.4157 3.38663 -41.9612C7.75668 -40.2476 16.6204 -36.5736 23.2141 -33.7486C26.3642 -32.3438 32.6645 -29.1792 37.2816 -26.6784C40.6635 -24.8413 47.4888 -20.874 52.5229 -17.8329C52.5692 -17.802 52.6618 -17.7402 52.739 -17.6785C56.3524 -15.2549 63.6101 -10.0062 68.9376 -5.94624C68.9839 -5.91536 69.0766 -5.83817 69.1384 -5.77643C70.4046 -4.68039 72.9834 -2.45744 74.8982 -0.805656C76.4269 0.676315 79.5462 3.71743 81.8316 5.98669C81.878 6.033 81.9552 6.11019 82.0169 6.18738C84.4259 8.82713 89.1511 14.4926 92.5638 18.8304C92.6101 18.8922 92.7028 19.0157 92.7491 19.0929C94.7256 21.9024 98.5552 27.8457 101.288 32.3843C101.319 32.446 101.381 32.5541 101.443 32.6467C102.493 34.5146 104.439 38.4511 105.782 41.4305C106.801 43.6843 108.747 48.3617 110.106 51.866C110.121 51.9277 110.168 52.0512 110.198 52.1438C111.789 56.7596 114.522 66.3769 116.283 73.6324C117.796 80.5174 119.958 94.8276 121.085 105.572C121.811 111.237 122.197 122.831 121.934 131.475C121.873 133.127 121.78 135.736 121.718 137.295C121.363 144.504 119.633 159.17 117.873 170.068C116.561 177.447 112.901 192.36 109.704 203.382C107.589 210.344 102.2 224.268 97.6905 234.503C94.5867 241.249 87.2672 254.587 81.3375 264.312C78.9903 268.079 73.8481 275.551 69.8333 281.015C67.0537 284.797 61.0931 292.315 56.5223 297.826C52.9089 302.01 45.0335 310.176 38.934 316.073C33.9616 320.658 23.0905 329.272 14.6592 335.308C10.0576 338.457 0.298248 344.4 -7.14476 348.584C-13.0899 351.81 -25.7368 357.491 -35.4035 361.258C-42.1053 363.728 -56.1574 367.834 -66.7815 370.443C-75.954 372.527 -95.0093 375.398 -109.339 376.865C-135.297 379.35 -188.433 380.23 -228.026 378.825C-233.925 380.956 -240.519 379.86 -242.758 376.402C-243.113 375.753 -243.514 374.318 -243.653 373.191C-252.517 354.99 -252.023 336.651 -242.542 332.205C-241.538 331.835 -239.422 331.618 -237.832 331.742C-232.968 332.097 -228.119 332.421 -223.285 332.73"
			fill="#004D66" />
		<path
			d="M-137.428 43.0822C-128.348 44.9347 -110.05 49.7665 -96.5381 53.8728C-93.3416 54.8608 -86.9178 57.1609 -82.1926 59.0288C-78.9498 60.2947 -72.4024 63.0425 -67.5382 65.1728C-67.4764 65.2037 -67.3683 65.25 -67.2911 65.2963C-62.257 67.6891 -52.2352 73.2464 -44.9312 77.7078C-44.8694 77.7387 -44.7459 77.8158 -44.6687 77.8776C-41.6575 79.9153 -35.6043 84.3303 -31.157 87.7419C-31.1107 87.7728 -31.018 87.85 -30.9408 87.9118C-29.3194 89.2085 -26.1538 92.0643 -23.853 94.2719C-22.2625 95.8156 -19.1123 99.0728 -16.8269 101.558C-16.7806 101.62 -16.6725 101.728 -16.6107 101.821C-14.3871 104.507 -10.0788 110.28 -6.99039 114.695C-6.92862 114.803 -6.78964 115.004 -6.69699 115.174C-5.19913 117.875 -2.41957 123.603 -0.473892 127.971C-0.427567 128.048 -0.365784 128.218 -0.319458 128.342C0.8078 131.337 2.70714 137.635 3.91161 142.39C3.92705 142.467 3.97337 142.637 3.98882 142.76C4.40576 145.014 5.13155 149.645 5.5948 153.118C5.5948 153.18 5.62566 153.35 5.62566 153.458C5.91907 156.792 6.05804 163.662 5.94995 168.787C5.94995 168.864 5.94997 169.034 5.93452 169.158C5.71834 171.658 5.13155 176.753 4.60652 180.535C4.60652 180.612 4.57562 180.751 4.54474 180.844C3.8653 184.533 2.04315 192.005 0.483521 197.547C0.468079 197.624 0.421738 197.763 0.390854 197.855C-0.720963 201.313 -3.48506 208.229 -5.77046 213.292C-5.80135 213.37 -5.87856 213.524 -5.94032 213.632C-7.08302 215.793 -9.60007 220.147 -11.5612 223.357C-11.6075 223.435 -11.6847 223.558 -11.7619 223.666C-13.1517 225.642 -16.132 229.61 -18.4174 232.527C-18.4637 232.589 -18.5718 232.712 -18.6645 232.805C-20.2704 234.596 -23.6985 238.146 -26.3237 240.755C-26.3854 240.817 -26.509 240.925 -26.6016 241.002C-28.362 242.53 -32.0681 245.541 -34.8939 247.717C-34.9557 247.764 -35.0947 247.872 -35.1873 247.933C-38.7235 250.419 -46.321 254.973 -52.1735 258.107C-57.6553 260.932 -69.175 266.01 -77.9151 269.437C-85.8214 272.54 -102.421 277.511 -115.007 280.521C-124.658 282.652 -144.609 285.6 -159.588 287.113C-170.644 288.41 -193.374 289.104 -210.345 288.657C-229.478 298.428 -246.541 292.3 -248.44 274.949C-252.208 262.599 -248.965 249.817 -241.198 246.374C-239.453 245.711 -235.778 245.247 -233.014 245.325C-210.469 252.765 -163.711 252.688 -128.58 245.155C-123.901 244.553 -114.682 242.16 -107.965 239.798C-103.286 238.378 -94.052 234.472 -87.3656 231.061C-74.8576 227.417 -58.8444 212.104 -51.5867 196.867C-50.83 195.416 -49.641 192.36 -48.9152 190.029C-47.1085 185.675 -46.1357 176.537 -46.7225 169.621C-46.8769 163.43 -50.9227 152.347 -55.756 144.89C-60.1878 137.65 -72.0472 126.489 -82.2389 119.944C-85.9604 117.181 -94.1292 112.642 -100.476 109.802C-104.892 107.625 -114.235 103.797 -121.322 101.265C-125.353 99.8138 -133.707 97.174 -139.992 95.3833C-148.516 92.8671 -166.135 88.6682 -179.369 85.9975C-185.345 84.7626 -197.606 82.4933 -206.778 80.9033C-219.147 87.0936 -227.686 81.5825 -225.849 68.5844C-224.413 61.7457 -221.803 47.806 -220.043 37.4168C-220.166 35.9194 -219.332 33.3414 -218.19 31.6741C-213.341 30.7633 -205.512 30.6399 -200.709 31.4117C-195.629 32.1527 -185.283 33.8508 -177.593 35.1938C-164.174 37.5557 -150.786 40.0565 -137.475 43.0205"
			fill="#004D66" />
		<path
			d="M109.828 506.398C102.586 509.47 91.3593 514.271 84.781 517.111C80.0095 519.211 70.0958 522.823 62.6373 525.17C57.526 527.13 46.9174 530.495 38.9494 532.688C33.6528 534.432 22.7354 537.427 14.5511 539.372C9.53253 540.53 -0.720917 542.922 -8.34923 544.713C-48.8843 552.03 -132.58 562.975 -195.305 569.181C-202.779 573.719 -212.739 572.346 -217.572 566.109C-218.282 565.075 -219.162 562.759 -219.533 560.938C-229.153 542.907 -228.721 525.679 -218.576 522.437C-217.047 522.067 -213.912 521.974 -211.565 522.221C-184.14 525.123 -156.376 525.432 -136.564 523.502C-132.348 523.086 -128.904 522.761 -128.889 522.761C-128.858 522.761 -128.796 522.761 -128.735 522.746H-128.642C-128.642 522.746 -127.268 522.607 -125.692 522.468C-122.218 522.144 -117.138 521.665 -114.327 521.387C-96.6153 519.689 -60.9599 513.484 -34.6623 507.556C-25.9222 505.487 -8.21027 500.748 4.91537 496.966C10.3818 494.959 21.6236 491.424 30.0085 489.062C30.0703 489.047 30.2093 489 30.3019 488.954C41.1576 485.465 62.5755 476.558 78.1564 469.055C86.7113 465.088 103.759 456.011 116.236 448.786C117.904 447.845 121.239 445.807 123.695 444.248C126.428 442.998 128.991 444.155 129.408 446.841C131.709 461.167 134.365 475.555 135.832 482.764C136.635 486.746 137.129 490.312 136.928 490.745C136.558 491.517 136.048 492.566 135.662 493.338C135.461 493.77 133.392 495.052 131.076 496.225C126.86 498.34 118.429 502.492 109.812 506.413"
			fill="#004D66" />
		<path
			d="M93.3822 410.116C43.8445 443.878 -65.7932 474.999 -151.511 479.615C-166.104 479.09 -195.922 478.982 -218.097 479.383C-222.019 480.541 -228.072 478.843 -231.593 475.601C-232.952 474.335 -234.851 471.248 -235.824 468.716C-244.796 452.183 -245.167 432.3 -236.658 424.303C-232.072 423.053 -224.058 422.358 -218.761 422.729C-212.631 423.238 -200.092 423.933 -190.734 424.288C-149.55 433.133 -71.0126 422.868 -15.3445 401.379C3.49471 396.161 36.2625 376.849 57.8348 358.232C65.6485 353.57 77.8939 340.85 85.1671 329.828C86.8965 319.639 97.953 306.487 109.859 300.466C112.082 298.135 115.094 298.398 116.591 301.053C117.008 310.933 117.487 326.03 117.672 334.752C118.877 344.833 120.436 365.503 121.162 380.909C121.934 397.226 105.458 403.108 93.3822 410.132"
			fill="#004D66" />
		<path
			d="M110.523 1147.89C118.491 1143.57 133.778 1133.26 144.649 1124.84C151.598 1119.41 165.156 1107.57 174.946 1098.41C181.803 1092.52 193.801 1078.99 201.738 1068.19C204.626 1064.39 209.969 1056.24 213.675 1049.99C215.96 1045.94 220.207 1037.47 223.172 1031.06C224.978 1027.43 227.912 1019.78 229.734 1013.93C231.448 1008.83 233.965 998.288 235.386 990.353C237.502 981.014 237.733 962.227 235.927 948.395C238.32 919.975 218.354 878.557 191.33 855.865C189.446 854.043 185.292 850.693 182.065 848.378C179.733 846.68 174.792 843.407 171.009 841.076C166.978 838.683 158.408 834.438 151.845 831.582C145.977 829.76 134.35 825.994 125.872 823.169C125.748 823.122 125.486 823.061 125.285 823.03C113.565 820.004 89.4445 818.244 71.4083 819.078C62.3748 819.279 43.9834 820.977 30.3019 822.875C21.2375 824.218 2.92334 827.769 -10.6192 830.826C-18.5718 832.462 -34.6314 836.615 -46.4599 840.103C-62.7666 844.426 -95.3028 855.602 -119.099 865.065C-120.983 865.837 -123.16 864.926 -123.963 863.027C-125.708 858.967 -129.167 850.662 -131.699 844.457C-133.46 840.165 -136.95 831.412 -139.513 824.882C-140.239 823.215 -139.482 821.131 -137.845 820.189C-131.143 816.33 -117.292 808.658 -106.931 803.07C-94.9013 796.339 -69.2368 784.73 -49.6101 777.135C-44.0356 774.881 -32.3615 771.084 -23.5287 768.645C-17.2593 766.838 -4.33437 763.597 5.34772 761.405C20.3109 757.715 47.2726 753.532 65.5558 752.081C67.1463 751.957 70.4046 751.695 72.8289 751.494C73.6782 751.463 75.4232 751.34 76.7203 751.216C76.7821 751.216 76.9211 751.201 77.0137 751.201C80.9051 751.046 88.8886 751.093 94.8491 751.324C104.006 751.695 122.629 753.81 136.45 756.063C144.232 757.36 159.875 761.297 171.41 764.847C175.981 766.36 185.184 769.988 191.979 772.921C195.901 774.758 203.715 778.988 209.428 782.384C209.49 782.415 209.598 782.492 209.691 782.553C213.119 784.776 219.898 789.732 224.824 793.622C228.067 796.37 234.429 802.329 239.015 806.929C243.045 811.205 250.72 820.513 256.171 827.707C259.877 832.786 266.625 843.746 271.242 852.191C273.62 856.868 277.913 866.748 280.847 874.25C282.7 879.484 285.958 890.398 288.105 898.656C289.356 904.121 291.24 915.483 292.321 924.035C292.321 924.112 292.336 924.251 292.351 924.344C292.83 929.855 293.093 941.232 292.954 949.753C292.954 949.815 292.954 949.954 292.954 950.047C292.629 956.067 291.27 968.402 289.896 977.571C289.124 981.678 287.348 990.045 285.912 996.266C284.847 1000.5 282.36 1009.03 280.368 1015.35C277.774 1023.71 272.756 1036.71 269.158 1044.37C267.938 1046.96 265.699 1051.69 264.185 1054.91C263.938 1055.45 263.676 1055.98 263.552 1056.25C263.475 1056.41 263.49 1056.39 263.552 1056.22C263.66 1055.99 263.985 1055.31 264.263 1054.73C264.371 1054.49 264.479 1054.26 264.54 1054.14C264.571 1054.08 263.506 1056.15 262.162 1058.77C260.433 1062.4 254.611 1072.77 249.145 1081.93C245.84 1087.16 238.691 1097.64 233.147 1105.33C229.41 1110.41 221.427 1120.5 215.327 1127.88C211.992 1132 204.78 1140.08 199.206 1145.93C195.422 1149.94 187.393 1157.86 181.278 1163.64C171.055 1174.18 147.784 1192.53 129.285 1204.64C123.803 1209.99 111.357 1219.05 101.505 1224.86C96.1771 1229.83 85.6921 1231.44 78.0946 1228.43C74.3268 1226.88 68.6442 1221.74 65.4323 1216.92C59.9195 1212.6 54.4685 1202.86 53.2486 1195.14C53.4339 1189.65 58.6378 1181.51 64.8609 1176.94C79.4226 1166.29 95.1888 1157.31 110.538 1147.84"
			fill="#004D66" />
		<path
			d="M106.739 707.344C102.524 707.035 93.8918 706.556 87.4525 706.263C83.592 706.186 77.1064 706.387 72.9834 706.711C72.7363 706.726 72.2267 706.772 71.8561 706.803C71.223 706.803 69.9722 706.896 69.0303 707.035C67.4397 707.158 65.8492 707.297 65.0462 707.359C64.6139 707.39 64.2278 707.421 64.2124 707.421C64.1815 707.421 64.0888 707.421 63.9962 707.436C62.9307 707.483 60.7379 707.652 59.0856 707.822C56.4451 708.116 51.0404 708.702 47.0101 709.134C43.304 709.551 35.7683 710.585 30.1784 711.45C12.4201 712.963 -22.4786 720.944 -47.7571 729.264C-64.7123 734.05 -97.6036 747.882 -121.245 760.185C-128.225 763.766 -142.323 771.392 -152.747 777.228C-154.955 778.308 -157.379 777.397 -158.167 775.19C-162.228 764.137 -169.903 741.552 -175.307 724.757C-175.941 722.719 -174.813 720.573 -172.775 719.956C-170.536 719.292 -165.965 717.933 -162.552 716.915C-97.6963 691.582 39.5207 660.013 143.924 646.398C150.023 644.283 162.392 644.159 171.534 646.104C179.008 648.96 187.949 660.785 191.516 672.502C195.283 684.373 204.348 708.193 211.745 725.714C212.131 729.836 209.907 732.028 206.772 730.638C202.062 728.338 192.056 724.541 184.443 722.148C159.227 714.198 133.176 709.165 106.77 707.39"
			fill="#004D66" />
		<path
			d="M78.4653 609.951C61.1548 612.559 26.2407 619.414 0.483521 625.264C-39.8817 635.298 -121.755 658.053 -182.411 676.083C-183.584 676.824 -186.009 677.133 -187.815 676.809C-191.475 668.01 -195.706 656.154 -197.266 650.35C-199.196 643.341 -202.887 628.938 -205.512 618.194C-205.96 615.739 -204.4 613.655 -202.037 613.532C-186.487 612.837 -154.878 610.367 -131.406 607.99C-99.8118 606.616 -36.4073 596.922 10.2119 586.332C25.9781 583.337 57.3716 574.445 80.3337 566.464C87.8076 564.025 102.771 558.282 113.766 553.62C121.61 546.257 135.616 540.113 145.066 539.881C154.918 551.366 163.612 571.003 164.492 583.723C165.388 586.378 164.986 591.318 163.581 594.76C148.17 599.16 126.505 603.745 115.186 604.995C102.941 606.354 90.7107 608.021 78.4961 609.951"
			fill="#004D66" />
		<path
			d="M31.2902 945.246C37.2817 943.208 49.8668 940.507 59.4099 939.225C71.7017 933.93 87.7613 938.299 95.2815 948.966C100.146 959.263 99.2038 976.259 93.1814 986.942C82.8353 1004.2 55.0862 1030.21 31.1821 1045.05C10.7679 1070.49 -14.8349 1080.03 -26.0303 1066.32C-28.7635 1058.63 -26.2156 1050.14 -20.3322 1047.35C-7.90144 1045.43 16.2497 1036.17 33.6219 1026.65C57.14 1015.42 60.4137 996.976 40.9414 985.444C35.058 982.033 23.3994 981.616 14.9217 984.518C8.51334 987.729 -4.75127 993.796 -14.6959 998.057C-19.4365 1000.09 -29.1032 1004.28 -36.2991 1007.4C-40.4221 1015.45 -49.1931 1016.61 -55.8795 1009.96C-58.3811 1007.03 -61.8401 1000.37 -63.6005 995.108C-60.9445 988.485 -52.6367 980.319 -45.0393 976.877C-19.977 965.515 4.77639 952.949 31.3056 945.292"
			fill="#004D66" />
		<path
			d="M-39.2023 884.624C-29.0878 881.521 -8.16399 876.103 7.5559 872.521C12.6826 871.333 23.2603 869.341 31.1821 868.06C36.6794 867.165 47.9829 865.698 56.4296 864.787C60.0585 864.479 67.5324 864.031 73.1223 863.784C76.9519 863.676 84.7655 863.738 90.5563 863.938C95.6058 864.232 105.906 865.498 113.565 866.779C113.642 866.779 113.796 866.825 113.904 866.841C116.993 867.52 123.262 869.156 127.91 870.484C127.988 870.499 128.142 870.561 128.265 870.592C131.03 871.564 136.62 873.772 140.743 875.532C140.82 875.578 140.99 875.655 141.113 875.717C144.155 877.261 150.301 880.796 154.826 883.621C154.934 883.683 155.134 883.837 155.289 883.96C158.192 886.106 163.689 891.077 167.55 895.06C168.893 896.511 171.441 899.66 173.232 902.084C174.761 904.353 177.618 909.169 179.61 912.843C179.641 912.905 179.718 913.044 179.764 913.167C180.892 915.56 183.007 920.577 184.474 924.359C184.505 924.421 184.551 924.56 184.582 924.668C185.926 928.574 188.211 936.74 189.678 942.899C189.693 942.961 189.724 943.1 189.74 943.193C190.327 946.265 191.315 952.594 191.948 957.364C191.948 957.426 191.963 957.565 191.979 957.657C192.18 959.541 192.38 963.446 192.427 966.349C192.458 968.247 192.38 972.122 192.257 975.009C192.257 975.086 192.241 975.24 192.241 975.364C191.963 978.004 191.191 983.376 190.512 987.374C190.512 987.451 190.481 987.606 190.45 987.729C189.817 990.508 188.304 996.127 187.084 1000.29C187.053 1000.37 187.022 1000.51 186.991 1000.62C185.57 1004.77 182.173 1013.12 179.394 1019.27C179.363 1019.33 179.301 1019.47 179.255 1019.56C177.803 1022.42 174.607 1028.14 172.121 1032.36C172.09 1032.42 172.012 1032.54 171.951 1032.64C169.434 1036.53 163.782 1044.2 159.335 1049.79C159.304 1049.83 159.211 1049.94 159.149 1050.02C154.748 1055.16 145.066 1065.12 137.531 1072.26C133.191 1076.21 124.019 1084 117.055 1089.63C112.453 1093.29 102.817 1100.47 95.544 1105.65C88.2709 1110.99 72.8598 1121.09 61.124 1128.21C47.149 1149.02 29.2055 1156.21 21.0676 1144.28C2.46007 1134.27 -2.40413 1116.4 10.1965 1104.36C12.8371 1102.23 18.8285 1098.91 23.5692 1096.95C72.2422 1088.36 124.482 1040.49 140.233 990.045C141.329 987.019 142.812 980.551 143.522 975.611C147.336 962.767 142.935 940.599 133.716 926.088C128.312 914.727 110.646 901.713 94.2623 897.036C81.9088 893.3 57.387 893.176 39.4898 896.758C22.3956 900.416 -10.7428 912.118 -34.5079 922.893C-45.1165 925.78 -64.1564 934.749 -77.0041 942.915C-78.2858 944.381 -81.3124 945.601 -83.7831 945.632C-91.4577 932.943 -100.013 917.505 -102.9 911.145C-103.78 909.138 -102.854 906.854 -100.846 906.051C-97.0786 904.523 -89.3422 901.512 -83.5515 899.32C-68.8816 894.056 -54.1192 889.008 -39.1559 884.609"
			fill="#004D66" />
	</g>
	<defs>
		<clipPath id="clip0_2_17">
			<rect width="543" height="1315" fill="white" transform="translate(-250 -85)" />
		</clipPath>
	</defs>
</svg>
